<?xml version="1.0" encoding="UTF-8"?>
<svg version="1.1" xmlns="http://www.w3.org/2000/svg" width="1081" height="1081">
<path d="M0 0 C356.73 0 713.46 0 1081 0 C1081 356.73 1081 713.46 1081 1081 C724.27 1081 367.54 1081 0 1081 C0 724.27 0 367.54 0 0 Z " fill="#010005" transform="translate(0,0)"/>
<path d="M0 0 C2.42852057 0.03369041 4.85085983 0.12598584 7.27772141 0.22027874 C8.9715942 0.24268212 10.66554517 0.25975338 12.35952377 0.27173138 C16.8020602 0.31738818 21.23983014 0.43508816 25.6804924 0.56817913 C30.21810535 0.6913088 34.75649485 0.74581923 39.29529953 0.80621624 C48.18866145 0.93462121 57.07849715 1.13920232 65.96912766 1.39215374 C64.54717184 5.03275105 62.94968914 8.34182403 60.98475266 11.72418499 C60.38662766 12.75736858 59.78850266 13.79055218 59.17225266 14.85504436 C58.52772141 15.96041546 57.88319016 17.06578655 57.21912766 18.20465374 C56.54177153 19.37181317 55.86469254 20.53913349 55.18787766 21.70660686 C53.11976651 25.2712618 51.045205 28.83213396 48.96912766 32.39215374 C48.36391281 33.43033245 47.75869797 34.46851116 47.13514328 35.53814983 C44.83795466 39.47719807 42.53966377 43.41559885 40.23939133 47.3528471 C33.43488826 59.00504628 26.70370727 70.69945239 19.96912766 82.39215374 C12.09332041 96.06627554 4.2005692 109.72952348 -3.76158524 123.35357952 C-8.04332151 130.68527853 -12.29307242 138.03498355 -16.53087234 145.39215374 C-21.33939078 153.74013833 -26.16992917 162.07458558 -31.03087234 170.39215374 C-38.41502127 183.02958827 -45.72577369 195.70890672 -53.03087234 208.39215374 C-60.90749823 222.06769688 -68.80207326 235.73176332 -76.7637825 249.35797405 C-83.56674858 261.00874559 -90.29729421 272.70119118 -97.03087234 284.39215374 C-104.90667959 298.06627554 -112.7994308 311.72952348 -120.76158524 325.35357952 C-125.67923116 333.77415879 -130.55214342 342.22011272 -135.4188118 350.67022991 C-139.66023387 358.0298429 -143.93070274 365.37190241 -148.21837234 372.70465374 C-153.09322099 381.04373044 -157.91595005 389.41057697 -162.69908524 397.80255413 C-166.00004916 403.59289617 -169.31749475 409.37329595 -172.65587234 415.14215374 C-173.10494949 415.91865276 -173.55402664 416.69515179 -174.01671219 417.49518108 C-176.23399873 421.32094534 -178.46737874 425.13603091 -180.73009109 428.93512249 C-193.04215374 449.21003128 -193.04215374 449.21003128 -195.03087234 472.39215374 C-192.15309449 483.32026705 -185.82475321 492.63290877 -176.03087234 498.39215374 C-169.02306491 502.29935643 -163.0686145 502.96552088 -155.1269722 502.90008831 C-153.95506407 502.90632827 -152.78315594 502.91256824 -151.57573545 502.91899729 C-148.34484692 502.9321336 -145.11456597 502.92748497 -141.88369322 502.91505241 C-138.39073401 502.90596773 -134.89785425 502.91998864 -131.40491104 502.9309721 C-124.57037736 502.94872675 -117.73601974 502.94493071 -110.90147926 502.93332154 C-105.34399317 502.92427394 -99.78655629 502.92306894 -94.22906494 502.9274168 C-93.04086497 502.9283362 -93.04086497 502.9283362 -91.82866096 502.92927417 C-90.21923879 502.93055313 -88.60981664 502.93184998 -87.00039451 502.93316454 C-71.92014998 502.94456177 -56.84000281 502.93147088 -41.75977425 502.90996307 C-28.83511754 502.89209978 -15.91060458 502.89519149 -2.98595047 502.91363811 C12.03863344 502.93507195 27.06313203 502.94345593 42.0877291 502.93118906 C43.69171562 502.92991493 45.29570217 502.92865744 46.89968872 502.9274168 C48.08333411 502.92649115 48.08333411 502.92649115 49.29089152 502.9255468 C54.83726678 502.92210091 60.38358769 502.92790593 65.92995453 502.93733501 C72.69569233 502.94858466 79.46124465 502.94545325 86.22696136 502.92421204 C89.67549416 502.91374016 93.12371834 502.90951295 96.57224846 502.92280865 C100.31889132 502.93377566 104.06467196 502.91998449 107.81126022 502.90008831 C108.88978205 502.9090112 109.96830388 502.91793408 111.07950819 502.92712736 C121.68645168 502.81823802 131.19140389 499.81090564 138.96912766 492.39215374 C147.22935213 483.15450131 150.40026347 474.09563574 150.23475266 461.77887249 C148.94587881 445.34573097 135.4545376 428.78579657 127.27039719 415.0313139 C121.84201069 405.90265404 116.50397486 396.72523929 111.228405 387.50714397 C108.46713674 382.68811766 105.68594596 377.89138709 102.77381516 373.16168499 C102.29541183 372.37809612 101.81700851 371.59450726 101.32410812 370.78717327 C100.45280228 369.36765121 99.56988761 367.9551551 98.67274094 366.55182171 C95.9024443 362.02000997 95.9024443 362.02000997 96.22767258 358.95782757 C96.97579782 356.36907282 97.91188541 354.37006012 99.26990891 352.04840374 C99.98449265 350.81356243 99.98449265 350.81356243 100.71351242 349.55377483 C101.23099045 348.67543987 101.74846848 347.79710491 102.28162766 346.89215374 C103.38079347 344.99904502 104.47974586 343.10581238 105.57850266 341.21246624 C106.1424675 340.24599163 106.70643234 339.27951702 107.28748703 338.2837553 C109.3951411 334.65961842 111.47264887 331.01885114 113.54652023 327.37530804 C115.02539635 324.77809719 116.51029267 322.18441032 117.99647141 319.59137249 C120.04353644 316.01798109 122.07463862 312.43602697 124.09803391 308.84918499 C125.09654136 307.0925663 126.0952322 305.33605183 127.09412766 303.57965374 C127.5556926 302.75449261 128.01725754 301.92933147 128.4928093 301.07916546 C128.92069748 300.33038128 129.34858566 299.5815971 129.78944016 298.81012249 C130.16342941 298.14778606 130.53741867 297.48544964 130.92274094 296.80304241 C131.26804855 296.33744915 131.61335617 295.87185589 131.96912766 295.39215374 C132.62912766 295.39215374 133.28912766 295.39215374 133.96912766 295.39215374 C134.33449631 296.02790325 134.69986496 296.66365276 135.07630539 297.31866741 C147.9067276 319.63132206 160.9003292 341.84563213 174.00989914 363.99542522 C179.32444803 372.98007402 184.60049405 381.98719438 189.87659836 390.99444866 C190.59493616 392.22077012 191.31327917 393.44708854 192.03162766 394.67340374 C192.55184746 395.56150486 192.55184746 395.56150486 193.08257675 396.46754742 C195.76756906 401.05033937 198.4601988 405.628585 201.15662766 410.20465374 C205.0525136 416.81751692 208.91819208 423.44778941 212.78162766 430.07965374 C217.77728782 438.65345045 222.80409403 447.20795543 227.86072922 455.74591351 C230.96702877 460.99421487 234.06094536 466.24951719 237.14100266 471.51324749 C237.49973969 472.12631252 237.85847672 472.73937756 238.22808456 473.37102032 C238.96065766 474.62306195 239.69321678 475.87511177 240.42576218 477.12716961 C246.0231645 486.69343402 251.65260913 496.2375916 257.37830734 505.7278471 C262.11016241 513.58844564 266.73761121 521.50969467 271.36362839 529.43283367 C275.33073145 536.22629446 279.32009486 543.00401676 283.39100266 549.73590374 C283.74297211 550.31858517 284.09494156 550.90126659 284.45757675 551.50160503 C286.13208605 554.27192484 287.81206866 557.03870585 289.49964523 559.80108929 C290.08898849 560.77344524 290.67833176 561.7458012 291.28553391 562.74762249 C291.80575119 563.5999345 292.32596848 564.45224651 292.86194992 565.33038616 C293.96912766 567.39215374 293.96912766 567.39215374 293.96912766 569.39215374 C85.40912766 569.39215374 -123.15087234 569.39215374 -338.03087234 569.39215374 C-336.51358826 565.59894353 -335.01035815 562.44561228 -332.97618484 558.95465374 C-332.06340775 557.38143353 -332.06340775 557.38143353 -331.1321907 555.77643108 C-330.15391312 554.1012138 -330.15391312 554.1012138 -329.15587234 552.39215374 C-328.12915297 550.62548503 -327.10363228 548.85812405 -326.07815933 547.09073162 C-325.3866593 545.89912261 -324.69477362 544.7077373 -324.00250626 543.51657391 C-320.96209458 538.28316374 -317.96127349 533.02782176 -314.96837234 527.76715374 C-310.18685494 519.37761077 -305.33296277 511.03178765 -300.459095 502.69562054 C-296.06213007 495.17132184 -291.6951954 487.6301441 -287.34337234 480.07965374 C-286.39542801 478.43501141 -286.39542801 478.43501141 -285.42833328 476.75714397 C-284.1978098 474.62200299 -282.96733935 472.48683144 -281.73692703 470.3516264 C-275.28435962 459.15843489 -268.79698649 447.98596267 -262.28087234 436.82965374 C-256.69960761 427.27381716 -251.16086413 417.6940928 -245.63731766 408.10480022 C-241.4580437 400.85377072 -237.25372353 393.61788161 -233.03087234 386.39215374 C-225.64672342 373.7547192 -218.335971 361.07540076 -211.03087234 348.39215374 C-203.15719533 334.72173048 -195.26616202 321.06242785 -187.30675125 307.44171429 C-181.07456419 296.7693793 -174.90744932 286.0596875 -168.73692703 275.3516264 C-162.81732371 265.08296132 -156.87299387 254.82905971 -150.89244461 244.59576702 C-145.89863177 236.05024118 -140.92828114 227.49334058 -136.03087234 218.89215374 C-131.22766482 210.45657047 -126.35266407 202.06484733 -121.45274734 193.68512249 C-117.11894178 186.26928889 -112.81759265 178.8352927 -108.53087234 171.39215374 C-103.72240983 163.04413716 -98.8918153 154.70972153 -94.03087234 146.39215374 C-86.64672342 133.7547192 -79.335971 121.07540076 -72.03087234 108.39215374 C-64.0868295 94.59956004 -56.12243589 80.82004219 -48.08922195 67.07916546 C-43.87388193 59.85985169 -39.71656679 52.60906846 -35.58018875 45.34430218 C-24.15123881 25.30085253 -24.15123881 25.30085253 -18.75346756 16.44932842 C-16.97051749 13.44521698 -16.97051749 13.44521698 -15.78349686 10.25331402 C-12.23276993 2.15783112 -8.51441359 0.11247281 0 0 Z " fill="#D5FE25" transform="translate(521.0308723449707,347.6078462600708)"/>
<path d="M0 0 C124.74 0 249.48 0 378 0 C373.35205833 9.29588334 368.73357438 18.52014911 363.75 27.625 C363.19699219 28.64078125 362.64398437 29.6565625 362.07421875 30.703125 C360.38551634 33.80356723 358.69310359 36.90195945 357 40 C355.98419551 41.86188125 354.96856448 43.72385715 353.953125 45.5859375 C352.47773356 48.29122691 351.00200545 50.99632833 349.52490234 53.70068359 C346.35046321 59.51440337 343.19260307 65.3368702 340.04296875 71.1640625 C335.3471681 79.85184356 330.62185487 88.5198364 325.80371094 97.14038086 C322.35086205 103.33238834 318.9870998 109.57086293 315.625 115.8125 C310.41924661 125.4680228 305.03613406 135.00942226 299.5703125 144.51953125 C295.78326748 151.10963925 292.15399845 157.76761031 288.65625 164.515625 C283.86341682 173.75061779 278.9756085 182.90344742 273.8125 191.9375 C268.70646904 200.87324616 263.81485515 209.90562387 259 219 C254.25380893 227.95942507 249.45139483 236.87378861 244.4375 245.6875 C243.9216333 246.5945166 243.4057666 247.5015332 242.87426758 248.43603516 C241.81424356 250.29817301 240.7539364 252.16014971 239.69335938 254.02197266 C223.77084689 281.35986889 223.77084689 281.35986889 211.6875 310.5 C211.45667725 311.19867188 211.22585449 311.89734375 210.98803711 312.6171875 C206.87458147 326.02714366 205.51540288 339.41964642 205.66381836 353.37646484 C205.68763006 355.76303534 205.68431659 358.14849488 205.67773438 360.53515625 C205.74255852 397.75165959 221.17259068 427.78619648 239.81298828 459.00830078 C241.743399 462.24735685 243.65235022 465.4989688 245.5625 468.75 C245.95928955 469.42434082 246.3560791 470.09868164 246.76489258 470.79345703 C249.49922357 475.44145521 252.22736955 480.09306251 254.953125 484.74609375 C255.30468658 485.34620773 255.65624817 485.94632172 256.01846313 486.56462097 C256.37604706 487.17501724 256.73363098 487.78541351 257.10205078 488.41430664 C257.83886399 489.67203963 258.57568043 490.92977074 259.3125 492.1875 C259.68034607 492.8154245 260.04819214 493.443349 260.42718506 494.09030151 C265.1636234 502.17449169 269.91406651 510.25007695 274.6875 518.3125 C279.65512399 526.70482625 284.58053462 535.12105789 289.48901367 543.5480957 C294.1451735 551.54041293 298.81971615 559.52179905 303.5 567.5 C310.4463543 579.34241591 317.37230263 591.19658395 324.28515625 603.05859375 C326.05353207 606.09182152 327.82343423 609.12415409 329.59375 612.15625 C335.4506012 622.1886356 341.29491147 632.22784869 347.10717773 642.28613281 C349.96449269 647.22573768 352.84851575 652.14873433 355.75 657.0625 C360.61187443 665.29980341 365.38646223 673.58676869 370.1574707 681.87695312 C373.44479485 687.5850456 376.74447031 693.28532811 380.07421875 698.96875 C380.72293945 700.07661865 381.37166016 701.1844873 382.04003906 702.32592773 C383.28619727 704.45154782 384.53418727 706.57609528 385.78417969 708.69946289 C386.33879883 709.6455542 386.89341797 710.59164551 387.46484375 711.56640625 C387.955896 712.40115479 388.44694824 713.23590332 388.95288086 714.09594727 C390 716 390 716 390 717 C380.64877152 717.67713875 371.30612184 718.18943867 361.93560123 718.50255299 C357.58107446 718.65302448 353.24345141 718.8558785 348.89868164 719.18774414 C321.64129575 721.21543225 321.64129575 721.21543225 314.3302269 715.75226974 C307.61865067 709.1992048 304.0485648 700.29926591 300.61061096 691.74334717 C298.14479632 685.76052805 294.62294325 680.40174338 291.1875 674.9375 C289.94542474 672.88249671 288.70663532 670.82550002 287.47265625 668.765625 C286.88500488 667.79044922 286.29735352 666.81527344 285.69189453 665.81054688 C284.12284381 663.20406608 282.55820796 660.59501736 280.99609375 657.984375 C276.69062303 650.7903593 272.3737994 643.60436391 268.00390625 636.44921875 C260.32169875 623.86590555 252.77364604 611.22929795 245.44946289 598.43237305 C240.90221762 590.50765578 236.19710708 582.69313177 231.41821289 574.90649414 C224.38862644 563.42282905 217.62794606 551.78176087 210.84179688 540.15332031 C208.56994193 536.26370227 206.28714323 532.38064059 204 528.5 C197.39515246 517.28303611 190.8193509 506.04899736 184.23779297 494.81835938 C181.71371691 490.51139876 179.18945105 486.20454928 176.66429138 481.89822388 C174.90608833 478.89967862 173.14900892 475.90048631 171.39428711 472.89990234 C167.7772759 466.71767167 164.13978508 460.54875818 160.46875 454.3984375 C135.55497554 412.58990357 121.0220063 369.55630906 132.60205078 320.44677734 C138.35693793 297.84537412 149.54016358 278.11169383 161 258 C161.5264209 257.0728418 162.0528418 256.14568359 162.59521484 255.19042969 C165.49928432 250.0764295 168.42062673 244.97253117 171.35009766 239.87304688 C174.61402889 234.18942114 177.87056568 228.50156734 181.125 222.8125 C181.64450226 221.9046022 181.64450226 221.9046022 182.17449951 220.97836304 C186.1836137 213.96928335 190.16496031 206.94684165 194.0625 199.875 C198.65151115 191.5485267 203.41745015 183.3272889 208.18286133 175.10083008 C213.19947546 166.42533535 218.11672183 157.69781949 222.98657227 148.93920898 C225.67984196 144.10459126 228.39810046 139.29127246 231.21484375 134.52734375 C231.71790039 133.67454834 232.22095703 132.82175293 232.73925781 131.94311523 C233.6646002 130.38210693 234.59687891 128.82517601 235.53808594 127.27368164 C241.88136635 116.57032152 244.20497635 105.36803511 241.30859375 93.0625 C240.37648787 90.56648426 239.30019853 88.32410488 238 86 C237.5875 85.22140625 237.175 84.4428125 236.75 83.640625 C231.60768017 74.93374257 223.78050411 70.19964107 214.42721748 66.86920738 C207.51455923 65.11602609 200.40778432 65.43989679 193.32202148 65.4699707 C191.55245203 65.46285911 189.78288891 65.45398969 188.01333618 65.44351196 C183.21884737 65.41996831 178.42463165 65.42063222 173.63009906 65.42542672 C168.54428799 65.42602594 163.45858064 65.4032172 158.37281799 65.38285828 C148.68517559 65.34743384 138.99760776 65.33144215 129.30990797 65.3230831 C112.19349456 65.30743535 95.07715276 65.25321888 77.96081316 65.20261753 C72.78354359 65.18736521 67.60627494 65.17305572 62.42899704 65.160923 C29.61087845 65.08365753 -3.18979449 64.7541525 -36 64 C-34.58716277 60.38360716 -33.00554713 57.09649971 -31.05078125 53.73828125 C-30.45692627 52.71387939 -29.86307129 51.68947754 -29.2512207 50.6340332 C-28.61144287 49.53792725 -27.97166504 48.44182129 -27.3125 47.3125 C-26.30455181 45.57588491 -25.29660898 43.83926669 -24.28898621 42.10246277 C-23.23792006 40.2916887 -22.18544485 38.48173898 -21.1328125 36.671875 C-17.67752896 30.72752223 -14.24654612 24.76913614 -10.8125 18.8125 C-10.18964111 17.73331299 -9.56678223 16.65412598 -8.92504883 15.54223633 C-8.33747803 14.52411865 -7.74990723 13.50600098 -7.14453125 12.45703125 C-6.63253174 11.56991455 -6.12053223 10.68279785 -5.59301758 9.76879883 C-3.72180666 6.51647652 -1.86161423 3.25782491 0 0 Z " fill="#D5FE25" transform="translate(597,200)"/>
<path d="M0 0 C0.33 0.66 0.66 1.32 1 2 C0.34 3.98 -0.32 5.96 -1 8 C205.25 8 411.5 8 624 8 C623.34 6.02 622.68 4.04 622 2 C625.00469351 4.59496258 625.36858796 5.9214699 627 10 C418.44 10 209.88 10 -5 10 C-3.51799926 6.29499816 -2.091496 3.32738 0 0 Z " fill="#D6F555" transform="translate(188,907)"/>
<path d="M0 0 C-7.6789726 5.95120377 -16.32170683 5.14561498 -25.70581055 5.12025452 C-27.44953162 5.12153615 -27.44953162 5.12153615 -29.22847939 5.12284368 C-32.43706517 5.12420109 -35.6456101 5.12109455 -38.85419106 5.11606562 C-42.32102214 5.11173281 -45.78785143 5.11320955 -49.25468445 5.1139679 C-55.25522305 5.11449134 -61.25575076 5.1113633 -67.25628662 5.10573006 C-75.93197169 5.09759072 -84.6076515 5.09499734 -93.28333998 5.09374207 C-107.36028302 5.09155537 -121.43722026 5.08490565 -135.51416016 5.07543945 C-149.18570934 5.06625544 -162.85725695 5.05917945 -176.52880859 5.05493164 C-177.37202655 5.05466892 -178.21524451 5.05440619 -179.08401453 5.05413551 C-183.31434161 5.05283044 -187.54466871 5.05156674 -191.7749958 5.05032361 C-226.85000134 5.0399629 -261.92500013 5.02235499 -297 5 C-297 4.34 -297 3.68 -297 3 C-296.39825016 2.99902319 -295.79650032 2.99804638 -295.17651564 2.99703997 C-259.50278313 2.93875335 -223.82911556 2.86494551 -188.15545866 2.77101372 C-183.87097338 2.75974571 -179.58648778 2.74860723 -175.30200195 2.73754883 C-174.44904692 2.73534514 -173.59609189 2.73314146 -172.71728974 2.730871 C-158.91087879 2.69550975 -145.1044679 2.670639 -131.29802848 2.64965298 C-117.12872331 2.62788159 -102.95947685 2.59481845 -88.79022163 2.55129844 C-80.0487868 2.52480478 -71.3074251 2.50709258 -62.56595211 2.50065396 C-56.56957168 2.49539308 -50.57328323 2.47915261 -44.57695211 2.45433434 C-41.11866227 2.44034327 -37.660537 2.43113954 -34.2022171 2.43499184 C-30.44793785 2.4366434 -26.69416629 2.41995392 -22.93995667 2.39872742 C-21.31006321 2.40599878 -21.31006321 2.40599878 -19.64724261 2.41341704 C-13.85058852 2.35936667 -9.13521051 1.73686037 -3.7442984 -0.45542401 C-2 -1 -2 -1 0 0 Z " fill="#A3BC34" transform="translate(652,848)"/>
<path d="M0 0 C0.33 0.66 0.66 1.32 1 2 C-0.77386662 5.79869828 -2.92282259 9.35434168 -5 13 C1.435 12.505 1.435 12.505 8 12 C8 12.66 8 13.32 8 14 C84.56 14 161.12 14 240 14 C240 14.66 240 15.32 240 16 C241.98 16 243.96 16 246 16 C246 16.66 246 17.32 246 18 C244.50344989 17.7571867 244.50344989 17.7571867 242.97666645 17.50946808 C239.09806247 16.95845247 235.29361994 16.86391059 231.37333679 16.84851074 C230.63648724 16.84427833 229.89963769 16.84004592 229.14045936 16.83568525 C226.68567838 16.82273372 224.23092986 16.81665046 221.77612305 16.81054688 C220.00714932 16.80259507 218.23817752 16.79420638 216.46920776 16.78541565 C212.65635939 16.76737084 208.84351523 16.7523469 205.03064537 16.73963928 C198.93583461 16.71922656 192.84106912 16.69157664 186.74629211 16.66296387 C174.82406992 16.60796031 162.90182449 16.56002549 150.97956848 16.51302338 C132.90692547 16.44152826 114.83430845 16.36516733 96.76171875 16.28125 C95.73532461 16.27656204 94.70893046 16.27187408 93.65143347 16.26704407 C59.76094019 16.11140142 25.88300578 15.75291611 -8 15 C-6.57104531 11.31976764 -4.94130103 8.05646907 -2.875 4.6875 C-2.33617187 3.80449219 -1.79734375 2.92148438 -1.2421875 2.01171875 C-0.83226562 1.34785156 -0.42234375 0.68398437 0 0 Z " fill="#CDEB4F" transform="translate(569,249)"/>
<path d="M0 0 C124.74 0 249.48 0 378 0 C370 16 370 16 368 18 C368 16.35 368 14.7 368 13 C368.66 13 369.32 13 370 13 C370 12.01 370 11.02 370 10 C370.66 10 371.32 10 372 10 C372 8.68 372 7.36 372 6 C372.66 6 373.32 6 374 6 C374 4.35 374 2.7 374 1 C251.24 1 128.48 1 2 1 C2 1.99 2 2.98 2 4 C0.02 4.99 0.02 4.99 -2 6 C-1.34 4.02 -0.68 2.04 0 0 Z " fill="#D5F54D" transform="translate(597,200)"/>
<path d="M0 0 C19.69743306 -0.04674118 39.39485485 -0.08199924 59.09233189 -0.10362434 C68.23841265 -0.11393257 77.38445894 -0.12798427 86.53051758 -0.15087891 C94.50313574 -0.17082663 102.47572893 -0.18371973 110.44837135 -0.18817699 C114.66898213 -0.19078202 118.88952147 -0.19689559 123.11010933 -0.21146011 C127.08517503 -0.22506585 131.06014005 -0.2292166 135.03522682 -0.22621536 C136.49165647 -0.22676419 137.94808959 -0.2307238 139.40449905 -0.23841095 C141.39887791 -0.24841851 143.39331115 -0.24476433 145.38771057 -0.24050903 C147.05938215 -0.24327441 147.05938215 -0.24327441 148.76482487 -0.24609566 C152.45273723 0.03443915 155.48394178 0.8780349 159 2 C155.40311424 3.24507584 152.69187598 2.64206539 149 2 C148.34 2.33 147.68 2.66 147 3 C145.6649834 2.67347349 144.33199223 2.33865261 143 2 C141.04430897 1.91119699 139.08581818 1.87801606 137.12811279 1.87974548 C135.92780426 1.87837082 134.72749573 1.87699615 133.49081421 1.87557983 C131.52067856 1.88097275 131.52067856 1.88097275 129.51074219 1.88647461 C128.11115521 1.88675674 126.71156809 1.88659824 125.3119812 1.8860321 C121.51480554 1.88574513 117.71766145 1.89162573 113.92049313 1.89860606 C109.95133054 1.90485622 105.98216724 1.90544472 102.01300049 1.90663147 C94.49785846 1.90973987 86.98273097 1.91794667 79.46759534 1.92798096 C70.91144005 1.93915731 62.35528406 1.94465639 53.79912329 1.94967639 C36.19940728 1.96012967 18.59970481 1.97771964 1 2 C0.67 1.34 0.34 0.68 0 0 Z " fill="#031100" transform="translate(656,265)"/>
<path d="M0 0 C25.08 0 50.16 0 76 0 C74.58001139 3.54997152 73.3878411 6.18729934 71.375 9.3125 C70.70597656 10.35857422 70.70597656 10.35857422 70.0234375 11.42578125 C69.51683594 12.20501953 69.51683594 12.20501953 69 13 C67.90341064 9.71023192 68.20046862 8.28696233 69 5 C69.99 5 70.98 5 72 5 C71.505 4.01 71.505 4.01 71 3 C35.50457138 2.09554541 35.50457138 2.09554541 0 2 C0 1.34 0 0.68 0 0 Z " fill="#D5F548" transform="translate(511,349)"/>
<path d="M0 0 C2.2477975 2.05233685 3.0022242 3.00667261 4 6 C-20.42 6 -44.84 6 -70 6 C-70 5.34 -70 4.68 -70 4 C-46.57 4 -23.14 4 1 4 C0.505 2.02 0.505 2.02 0 0 Z " fill="#D5F355" transform="translate(983,911)"/>
<path d="M0 0 C0.33 0.66 0.66 1.32 1 2 C-0.77386662 5.79869828 -2.92282259 9.35434168 -5 13 C1.435 12.505 1.435 12.505 8 12 C8 12.66 8 13.32 8 14 C35.06 14 62.12 14 90 14 C90 14.33 90 14.66 90 15 C57.66 15 25.32 15 -8 15 C-6.47489648 11.18724121 -4.99242873 8.13982945 -2.875 4.6875 C-2.33617187 3.80449219 -1.79734375 2.92148438 -1.2421875 2.01171875 C-0.83226562 1.34785156 -0.42234375 0.68398437 0 0 Z " fill="#D6F64C" transform="translate(569,249)"/>
<path d="M0 0 C1.55932272 3.11864545 0.65549131 5.66295335 0 9 C-0.66 9.66 -1.32 10.32 -2 11 C-2.16681109 14.08347826 -2.16681109 14.08347826 -2 17 C-2.66 17.33 -3.32 17.66 -4 18 C-4.66 17.67 -5.32 17.34 -6 17 C-6.33 18.32 -6.66 19.64 -7 21 C-8.32 21.33 -9.64 21.66 -11 22 C-11.01417969 22.61488281 -11.02835938 23.22976563 -11.04296875 23.86328125 C-11.18865178 26.33201802 -11.40173144 28.59837906 -12 31 C-14.4375 32.9375 -14.4375 32.9375 -17 34 C-17.66 34.66 -18.32 35.32 -19 36 C-18.41921761 32.26769808 -17.38304974 29.52829375 -15.48828125 26.26953125 C-14.97716797 25.38330078 -14.46605469 24.49707031 -13.93945312 23.58398438 C-13.40255859 22.66939453 -12.86566406 21.75480469 -12.3125 20.8125 C-11.79494141 19.91724609 -11.27738281 19.02199219 -10.74414062 18.09960938 C-7.22467523 12.02929858 -3.6250771 6.00771117 0 0 Z " fill="#CEF135" transform="translate(636,673)"/>
<path d="M0 0 C1.58172092 3.16344185 -0.0601894 5.71066289 -1 9 C-0.67 9.66 -0.34 10.32 0 11 C-1.32 11 -2.64 11 -4 11 C-4.33 12.32 -4.66 13.64 -5 15 C-5.66 15 -6.32 15 -7 15 C-7.020625 16.27875 -7.04125 17.5575 -7.0625 18.875 C-7.07410156 19.59429688 -7.08570313 20.31359375 -7.09765625 21.0546875 C-7.12649242 23.08185404 -7.12649242 23.08185404 -6 25 C-10.75 26.125 -10.75 26.125 -13 25 C-13 26.32 -13 27.64 -13 29 C-14.32 29.33 -15.64 29.66 -17 30 C-13.26428456 23.10563086 -9.48452049 16.23575755 -5.6875 9.375 C-5.24293457 8.56885254 -4.79836914 7.76270508 -4.34033203 6.93212891 C-3.92251465 6.17851074 -3.50469727 5.42489258 -3.07421875 4.6484375 C-2.69869873 3.96958496 -2.32317871 3.29073242 -1.9362793 2.59130859 C-1 1 -1 1 0 0 Z " fill="#D7FD2A" transform="translate(206,876)"/>
<path d="M0 0 C24.09 0 48.18 0 73 0 C72.67 0.66 72.34 1.32 72 2 C64.82105263 3.27368421 64.82105263 3.27368421 61 2 C59.12905552 1.92141144 57.25534485 1.90298202 55.3828125 1.91821289 C54.23151855 1.9247438 53.08022461 1.93127472 51.89404297 1.93800354 C50.65025879 1.94943893 49.40647461 1.96087433 48.125 1.97265625 C45.50520964 1.98529991 42.88541791 1.99766106 40.265625 2.00976562 C36.12430617 2.03353358 31.98304621 2.06222017 27.84179688 2.09594727 C23.85289708 2.12784084 19.86399458 2.14389539 15.875 2.16015625 C14.00932373 2.18034569 14.00932373 2.18034569 12.10595703 2.20094299 C10.95466309 2.20432175 9.80336914 2.2077005 8.6171875 2.21118164 C7.09520752 2.22236778 7.09520752 2.22236778 5.54248047 2.23377991 C3 2 3 2 0 0 Z " fill="#000D00" transform="translate(914,917)"/>
<path d="M0 0 C2.475 0.495 2.475 0.495 5 1 C5 2.65 5 4.3 5 6 C5.66 6.33 6.32 6.66 7 7 C7 6.34 7 5.68 7 5 C7.99 4.67 8.98 4.34 10 4 C12 7 12 7 11.625 9.1875 C11.41875 9.785625 11.2125 10.38375 11 11 C10.34 11 9.68 11 9 11 C9.99 13.31 10.98 15.62 12 18 C11.34 18.33 10.68 18.66 10 19 C8.32992313 16.02273264 6.66451428 13.0428803 5 10.0625 C4.28457031 8.78729492 4.28457031 8.78729492 3.5546875 7.48632812 C3.10351562 6.67744141 2.65234375 5.86855469 2.1875 5.03515625 C1.76855469 4.2862915 1.34960938 3.53742676 0.91796875 2.76586914 C0 1 0 1 0 0 Z M12 12 C12 15 12 15 12 15 Z " fill="#D2F632" transform="translate(771,676)"/>
<path d="M0 0 C1.43348316 2.86696632 0.55925559 4.89302451 0 8 C0 9.32 0 10.64 0 12 C-1.65 11.67 -3.3 11.34 -5 11 C-5.03738281 11.61488281 -5.07476562 12.22976563 -5.11328125 12.86328125 C-5.17902344 13.67152344 -5.24476563 14.47976563 -5.3125 15.3125 C-5.37050781 16.11300781 -5.42851562 16.91351562 -5.48828125 17.73828125 C-6.09675032 20.42762166 -6.71061778 21.46501375 -9 23 C-10.32 22.67 -11.64 22.34 -13 22 C-8.71 14.74 -4.42 7.48 0 0 Z " fill="#CAEA3B" transform="translate(396,548)"/>
<path d="M0 0 C0.66 0 1.32 0 2 0 C2 0.66 2 1.32 2 2 C2.66 2.33 3.32 2.66 4 3 C5.9022844 7.43866361 6.19188324 11.20291909 6 16 C6.66 16.33 7.32 16.66 8 17 C7.34 22.28 6.68 27.56 6 33 C5.34 33 4.68 33 4 33 C4 34.32 4 35.64 4 37 C3.34 37 2.68 37 2 37 C2.33 35.845 2.66 34.69 3 33.5 C5.16046127 23.59005809 5.37987861 13.04905688 0.875 3.8203125 C0 2 0 2 0 0 Z " fill="#CBEA41" transform="translate(835,284)"/>
<path d="M0 0 C1.2077558 3.62326739 0.54311128 4.64146369 -1 8 C-1.66 8 -2.32 8 -3 8 C-2.01 8.99 -1.02 9.98 0 11 C0 10.34 0 9.68 0 9 C0.99 8.67 1.98 8.34 3 8 C3 8.66 3 9.32 3 10 C2.34 10 1.68 10 1 10 C0.731875 10.598125 0.46375 11.19625 0.1875 11.8125 C-0.98493467 13.97224808 -2.19369282 15.35790256 -4 17 C-4.99 16.67 -5.98 16.34 -7 16 C-7.99 16.99 -8.98 17.98 -10 19 C-8.40376856 14.60616294 -6.21975667 10.71004193 -3.875 6.6875 C-3.50246094 6.04232422 -3.12992187 5.39714844 -2.74609375 4.73242188 C-1.83367787 3.15324055 -0.91724491 1.57638136 0 0 Z " fill="#D0F337" transform="translate(484,396)"/>
<path d="M0 0 C0.33 0 0.66 0 1 0 C1.08636719 0.71800781 1.17273438 1.43601562 1.26171875 2.17578125 C2.35301124 10.21530297 4.16795385 17.84633361 6.41088867 25.63793945 C6.6297876 26.41999756 6.84868652 27.20205566 7.07421875 28.0078125 C7.27619873 28.70535645 7.47817871 29.40290039 7.6862793 30.12158203 C8 32 8 32 7 35 C3.54521377 29.81782065 2.46323726 24.78502556 1.4375 18.75 C1.00280462 13.99042248 1.00280462 13.99042248 -1 10 C-1.13568319 6.33655389 -1.16461426 3.49384279 0 0 Z " fill="#C1DE40" transform="translate(802,574)"/>
<path d="M0 0 C0.33 1.32 0.66 2.64 1 4 C0.34 4 -0.32 4 -1 4 C-1.12375 4.969375 -1.2475 5.93875 -1.375 6.9375 C-1.58125 7.948125 -1.7875 8.95875 -2 10 C-2.99 10.495 -2.99 10.495 -4 11 C-3.97679687 11.62648438 -3.95359375 12.25296875 -3.9296875 12.8984375 C-3.91164063 13.71570313 -3.89359375 14.53296875 -3.875 15.375 C-3.85179687 16.18710937 -3.82859375 16.99921875 -3.8046875 17.8359375 C-4 20 -4 20 -6 22 C-8.625 21.625 -8.625 21.625 -11 21 C-9.3003494 16.26525903 -6.86340973 12.03832889 -4.375 7.6875 C-3.95476562 6.94693359 -3.53453125 6.20636719 -3.1015625 5.44335938 C-2.07051505 3.62730989 -1.03563954 1.81343467 0 0 Z " fill="#CFF03B" transform="translate(291,729)"/>
<path d="M0 0 C1.921875 0.8046875 1.921875 0.8046875 4 2 C5.25 5.125 5.25 5.125 6 8 C6.66 8 7.32 8 8 8 C9.85806718 13.52258855 10.30744749 18.38051586 10.25 24.1875 C10.25773438 24.98091797 10.26546875 25.77433594 10.2734375 26.59179688 C10.24960447 33.68808231 10.24960447 33.68808231 8 37 C8.06960938 35.24236328 8.06960938 35.24236328 8.140625 33.44921875 C8.39788735 24.16204792 8.18849125 16.50433527 4 8 C3.6184375 7.19433594 3.236875 6.38867188 2.84375 5.55859375 C1.93255791 3.6873957 0.97220144 1.84023844 0 0 Z " fill="#CDEB45" transform="translate(663,787)"/>
<path d="M0 0 C0.33 0.66 0.66 1.32 1 2 C-0.77386662 5.79869828 -2.92282259 9.35434168 -5 13 C1.435 12.505 1.435 12.505 8 12 C8 12.66 8 13.32 8 14 C8.66 14.33 9.32 14.66 10 15 C4.06 15 -1.88 15 -8 15 C-6.47489648 11.18724121 -4.99242873 8.13982945 -2.875 4.6875 C-2.33617187 3.80449219 -1.79734375 2.92148438 -1.2421875 2.01171875 C-0.83226562 1.34785156 -0.42234375 0.68398437 0 0 Z " fill="#BFDD3C" transform="translate(569,249)"/>
<path d="M0 0 C1.9375 0.3125 1.9375 0.3125 4 1 C5 4 5 4 3.34765625 7.35546875 C2.59622298 8.63889017 1.83403499 9.91606134 1.0625 11.1875 C0.48338867 12.16879883 0.48338867 12.16879883 -0.10742188 13.16992188 C-1.06253088 14.78535316 -2.03010066 16.39340525 -3 18 C-3.33 16.68 -3.66 15.36 -4 14 C-3.34 14 -2.68 14 -2 14 C-2 12.68 -2 11.36 -2 10 C-1.34 10 -0.68 10 0 10 C0 9.01 0 8.02 0 7 C-0.99 6.67 -1.98 6.34 -3 6 C-2.67 4.68 -2.34 3.36 -2 2 C-1.34 2 -0.68 2 0 2 C0 1.34 0 0.68 0 0 Z " fill="#CEF135" transform="translate(907,313)"/>
<path d="M0 0 C0.96498182 3.05905801 1.09929051 3.75961246 -0.1875 6.875 C-1.63515243 9.37095246 -3.1789852 11.70800582 -4.81640625 14.078125 C-7.55364979 18.52275807 -9.72240359 23.3081514 -12 28 C-12.66 28 -13.32 28 -14 28 C-12.74241557 23.93502792 -11.23747765 20.32309788 -9.1796875 16.6015625 C-8.64472656 15.62832031 -8.10976563 14.65507812 -7.55859375 13.65234375 C-7.00300781 12.65332031 -6.44742188 11.65429688 -5.875 10.625 C-5.31167969 9.60277344 -4.74835937 8.58054688 -4.16796875 7.52734375 C-2.7830669 5.01574208 -1.39363545 2.50676281 0 0 Z " fill="#151E02" transform="translate(962,223)"/>
<path d="M0 0 C-1.6658292 6.16356805 -4.87805286 11.48259656 -8 17 C-8.66 17 -9.32 17 -10 17 C-9.71926927 14.85270859 -9.42511501 12.70716807 -9.125 10.5625 C-8.88136719 8.77005859 -8.88136719 8.77005859 -8.6328125 6.94140625 C-8.42398438 5.97074219 -8.21515625 5.00007813 -8 4 C-7.34 3.67 -6.68 3.34 -6 3 C-6 3.99 -6 4.98 -6 6 C-5.34 6 -4.68 6 -4 6 C-4.33 5.01 -4.66 4.02 -5 3 C-2.25 0 -2.25 0 0 0 Z " fill="#D0F239" transform="translate(864,402)"/>
<path d="M0 0 C1.21209718 3.63629155 1.02369317 6.91223924 0.9375 10.6875 C0.85980413 16.45253374 1.1697542 21.5092626 3 27 C0.09758325 24.36143932 -1.79754901 21.87822276 -2.22705078 17.89355469 C-2.21657715 17.16040039 -2.20610352 16.42724609 -2.1953125 15.671875 C-2.18886719 14.87265625 -2.18242187 14.0734375 -2.17578125 13.25 C-2.15902344 12.425 -2.14226562 11.6 -2.125 10.75 C-2.11597656 9.90953125 -2.10695313 9.0690625 -2.09765625 8.203125 C-2.07415817 6.13529396 -2.03828908 4.06761005 -2 2 C-1.34 2 -0.68 2 0 2 C0 1.34 0 0.68 0 0 Z " fill="#D6F74B" transform="translate(325,801)"/>
<path d="M0 0 C0.99 0.33 1.98 0.66 3 1 C1.3003494 5.73474097 -1.13659027 9.96167111 -3.625 14.3125 C-4.04523437 15.05306641 -4.46546875 15.79363281 -4.8984375 16.55664062 C-5.92948495 18.37269011 -6.96436046 20.18656533 -8 22 C-8.33 22 -8.66 22 -9 22 C-9 20.35 -9 18.7 -9 17 C-8.34 17 -7.68 17 -7 17 C-7.33 16.01 -7.66 15.02 -8 14 C-7.01 14 -6.02 14 -5 14 C-5 12.35 -5 10.7 -5 9 C-4.34 9 -3.68 9 -3 9 C-3 8.01 -3 7.02 -3 6 C-2.34 6 -1.68 6 -1 6 C-1 4.68 -1 3.36 -1 2 C-0.67 1.34 -0.34 0.68 0 0 Z " fill="#CEEF40" transform="translate(830,458)"/>
<path d="M0 0 C0.66 0.66 1.32 1.32 2 2 C-0.97 7.28 -3.94 12.56 -7 18 C-8 14 -8 14 -7 11 C-7.66 11 -8.32 11 -9 11 C-9 10.34 -9 9.68 -9 9 C-4.61538462 6 -4.61538462 6 -2 6 C-2 4.68 -2 3.36 -2 2 C-1.34 2 -0.68 2 0 2 C0 1.34 0 0.68 0 0 Z " fill="#D1F437" transform="translate(923,291)"/>
<path d="M0 0 C1 3 1 3 0.36669922 4.82177734 C0.01623535 5.4864502 -0.33422852 6.15112305 -0.6953125 6.8359375 C-1.08203125 7.57070313 -1.46875 8.30546875 -1.8671875 9.0625 C-2.28226562 9.825625 -2.69734375 10.58875 -3.125 11.375 C-3.516875 12.13039063 -3.90875 12.88578125 -4.3125 13.6640625 C-6.72655518 18.1766101 -9.18030749 21.58810384 -13 25 C-11.40799441 19.14985897 -8.44263127 14.29481514 -5.375 9.125 C-4.859375 8.24585938 -4.34375 7.36671875 -3.8125 6.4609375 C-2.54664427 4.3042944 -1.27571593 2.15082012 0 0 Z " fill="#141E01" transform="translate(502,495)"/>
<path d="M0 0 C0.33 1.32 0.66 2.64 1 4 C0.34 4 -0.32 4 -1 4 C-1.66 6.31 -2.32 8.62 -3 11 C-3.66 11 -4.32 11 -5 11 C-4.79375 11.598125 -4.5875 12.19625 -4.375 12.8125 C-4 15 -4 15 -6 18 C-6.66 18 -7.32 18 -8 18 C-8 18.66 -8 19.32 -8 20 C-8.99 20.33 -9.98 20.66 -11 21 C-9.53171057 15.82064939 -7.18508737 11.65626588 -4.375 7.125 C-3.95476562 6.43664062 -3.53453125 5.74828125 -3.1015625 5.0390625 C-2.07307528 3.35608342 -1.037279 1.67757468 0 0 Z " fill="#C7E543" transform="translate(426,496)"/>
<path d="M0 0 C0.99 0.33 1.98 0.66 3 1 C-0.63 7.27 -4.26 13.54 -8 20 C-8.97608217 17.07175348 -9.08226668 15.04386724 -9 12 C-7.35 11.34 -5.7 10.68 -4 10 C-4 9.01 -4 8.02 -4 7 C-3.34 7 -2.68 7 -2 7 C-2.04125 6.21625 -2.0825 5.4325 -2.125 4.625 C-2 2 -2 2 0 0 Z " fill="#CCEC3F" transform="translate(553,403)"/>
<path d="M0 0 C0.66 0.33 1.32 0.66 2 1 C0.56861647 3.60769872 -0.86976005 6.21109447 -2.3125 8.8125 C-2.71662109 9.55048828 -3.12074219 10.28847656 -3.53710938 11.04882812 C-4.13168945 12.11713867 -4.13168945 12.11713867 -4.73828125 13.20703125 C-5.09962158 13.8616333 -5.46096191 14.51623535 -5.83325195 15.19067383 C-7.0409622 17.06352184 -8.37188437 18.48656925 -10 20 C-10 18.68 -10 17.36 -10 16 C-9.34 16 -8.68 16 -8 16 C-8 14.68 -8 13.36 -8 12 C-7.34 12 -6.68 12 -6 12 C-6.33 10.68 -6.66 9.36 -7 8 C-6.1028125 7.4121875 -6.1028125 7.4121875 -5.1875 6.8125 C-2.74488768 4.78862122 -1.49887186 2.77291294 0 0 Z " fill="#CCEB41" transform="translate(577,363)"/>
<path d="M0 0 C0.66 0.33 1.32 0.66 2 1 C2 1.66 2 2.32 2 3 C2.99 3 3.98 3 5 3 C3.23570801 7.97209562 0.6060834 12.43438061 -2 17 C-2.33 17 -2.66 17 -3 17 C-3 14.69 -3 12.38 -3 10 C-1.68 9.67 -0.36 9.34 1 9 C1.33 7.35 1.66 5.7 2 4 C0.68 4.33 -0.64 4.66 -2 5 C-1.34 3.35 -0.68 1.7 0 0 Z " fill="#CDEE40" transform="translate(888,347)"/>
<path d="M0 0 C1.58172092 3.16344185 -0.0601894 5.71066289 -1 9 C-0.67 9.66 -0.34 10.32 0 11 C-1.32 11 -2.64 11 -4 11 C-4.33 12.32 -4.66 13.64 -5 15 C-5.66 15 -6.32 15 -7 15 C-7 15.99 -7 16.98 -7 18 C-7.99 18.33 -8.98 18.66 -10 19 C-8.40376856 14.60616294 -6.21975667 10.71004193 -3.875 6.6875 C-3.50246094 6.04232422 -3.12992188 5.39714844 -2.74609375 4.73242188 C-1.83367787 3.15324055 -0.91724491 1.57638136 0 0 Z " fill="#C9E93D" transform="translate(206,876)"/>
<path d="M0 0 C1.08642103 3.2592631 0.92167347 3.8663102 0 7 C-0.34060811 8.66519519 -0.67558396 10.33157466 -1 12 C-5.455 13.485 -5.455 13.485 -10 15 C-8.63875 13.2365625 -8.63875 13.2365625 -7.25 11.4375 C-4.48803429 7.76578729 -2.18662404 4.03684438 0 0 Z " fill="#D4F737" transform="translate(668,828)"/>
<path d="M0 0 C3.28834617 2.79042625 5.12735689 6.47328176 7.1875 10.1875 C7.55552734 10.84169922 7.92355469 11.49589844 8.30273438 12.16992188 C9.2062466 13.77746961 10.1037241 15.38840651 11 17 C10.34 17.33 9.68 17.66 9 18 C8.67 17.34 8.34 16.68 8 16 C7.34 15.855625 6.68 15.71125 6 15.5625 C5.34 15.376875 4.68 15.19125 4 15 C3 12 3 12 4 9 C3.525625 8.62875 3.05125 8.2575 2.5625 7.875 C0.47794198 5.37353038 0.35378509 3.18406582 0 0 Z " fill="#CEEE40" transform="translate(824,639)"/>
<path d="M0 0 C1.3238515 2.64770301 0.72884003 3.54487403 -0.1875 6.3125 C-1.54079196 10.16131199 -3.07455136 13.07455136 -6 16 C-6.66 16 -7.32 16 -8 16 C-6.42986223 10.03347646 -3.24970218 5.17090975 0 0 Z M0 7 C0.33 7.66 0.66 8.32 1 9 C0.34 8.67 -0.32 8.34 -1 8 C-0.67 7.67 -0.34 7.34 0 7 Z " fill="#CEEF3D" transform="translate(759,457)"/>
<path d="M0 0 C1 2 1 2 0.5 3.875 C-0.24563603 6.31594175 -0.24563603 6.31594175 1 10 C-2.96 11.98 -2.96 11.98 -7 14 C-5.53967505 8.68972746 -3.01679014 4.53669968 0 0 Z " fill="#CFF138" transform="translate(462,434)"/>
<path d="M0 0 C0.33 0.66 0.66 1.32 1 2 C0.22265625 4.1640625 0.22265625 4.1640625 -0.9375 6.625 C-1.31777344 7.44226563 -1.69804688 8.25953125 -2.08984375 9.1015625 C-2.39019531 9.72804688 -2.69054687 10.35453125 -3 11 C-3.66 11 -4.32 11 -5 11 C-4.6596875 11.8971875 -4.6596875 11.8971875 -4.3125 12.8125 C-4 15 -4 15 -5.3125 16.75 C-7 18 -7 18 -9 18 C-9 18.66 -9 19.32 -9 20 C-9.66 19.67 -10.32 19.34 -11 19 C-7.37 12.73 -3.74 6.46 0 0 Z " fill="#CBEB41" transform="translate(818,353)"/>
<path d="M0 0 C0.99 0 1.98 0 3 0 C3.67154933 1.28913487 4.33708859 2.58140204 5 3.875 C5.37125 4.59429688 5.7425 5.31359375 6.125 6.0546875 C7 8 7 8 7 10 C7.66 10 8.32 10 9 10 C9 11.32 9 12.64 9 14 C9.66 14 10.32 14 11 14 C11 14.99 11 15.98 11 17 C11.66 17 12.32 17 13 17 C12.67 18.32 12.34 19.64 12 21 C9.99645958 17.68962903 7.99776448 14.37635933 6 11.0625 C5.42765625 10.11697266 4.8553125 9.17144531 4.265625 8.19726562 C3.72421875 7.29814453 3.1828125 6.39902344 2.625 5.47265625 C2.12226562 4.64000244 1.61953125 3.80734863 1.1015625 2.94946289 C0 1 0 1 0 0 Z " fill="#CBEB43" transform="translate(618,710)"/>
<path d="M0 0 C1.1577506 3.47325181 1.06866652 6.36067448 1 10 C0.360625 10.28875 -0.27875 10.5775 -0.9375 10.875 C-3.15206079 11.82823451 -3.15206079 11.82823451 -4 14 C-4.66 14 -5.32 14 -6 14 C-6 14.99 -6 15.98 -6 17 C-6.66 17 -7.32 17 -8 17 C-6.3341708 10.83643195 -3.12194714 5.51740344 0 0 Z " fill="#CDED3D" transform="translate(797,389)"/>
<path d="M0 0 C0.33 1.32 0.66 2.64 1 4 C0.34 4 -0.32 4 -1 4 C-1 4.66 -1 5.32 -1 6 C-0.01 5.67 0.98 5.34 2 5 C2 5.99 2 6.98 2 8 C1.401875 8.061875 0.80375 8.12375 0.1875 8.1875 C-2.85754676 9.31851737 -3.44490515 11.24324095 -5 14 C-5.66 14 -6.32 14 -7 14 C-5.53967505 8.68972746 -3.01679014 4.53669968 0 0 Z M2 4 C4 5 4 5 4 5 Z " fill="#CDEE3A" transform="translate(228,838)"/>
<path d="M0 0 C1.41441874 2.82883747 1.31900332 4.87376745 1 8 C-0.875 9.875 -0.875 9.875 -3 11 C-3.66 11 -4.32 11 -5 11 C-5.33 12.65 -5.66 14.3 -6 16 C-6.99 16.33 -7.98 16.66 -9 17 C-7.51481201 12.95698825 -5.57122002 9.38853744 -3.375 5.6875 C-2.74335938 4.61886719 -2.11171875 3.55023437 -1.4609375 2.44921875 C-0.97882813 1.64097656 -0.49671875 0.83273437 0 0 Z " fill="#CCED3B" transform="translate(301,712)"/>
<path d="M0 0 C1.32 0 2.64 0 4 0 C4.12375 0.804375 4.2475 1.60875 4.375 2.4375 C4.684375 3.7059375 4.684375 3.7059375 5 5 C5.66 5.33 6.32 5.66 7 6 C7.625 8.5625 7.625 8.5625 8 11 C8.99 11.33 9.98 11.66 11 12 C11 13.65 11 15.3 11 17 C7.71165383 14.20957375 5.87264311 10.52671824 3.8125 6.8125 C3.44447266 6.15830078 3.07644531 5.50410156 2.69726562 4.83007812 C1.7937534 3.22253039 0.8962759 1.61159349 0 0 Z " fill="#CDED40" transform="translate(821,762)"/>
<path d="M0 0 C2.475 0.495 2.475 0.495 5 1 C4.67 2.65 4.34 4.3 4 6 C4.66 6 5.32 6 6 6 C6 6.99 6 7.98 6 9 C6.66 9 7.32 9 8 9 C10.125 13.625 10.125 13.625 9 17 C7.49462965 14.54481265 5.99555574 12.0861548 4.5 9.625 C4.07074219 8.92632813 3.64148438 8.22765625 3.19921875 7.5078125 C0 2.2265625 0 2.2265625 0 0 Z " fill="#CBEB3F" transform="translate(747,635)"/>
<path d="M0 0 C1.65 0.33 3.3 0.66 5 1 C4.04901734 2.98270912 3.08899297 4.96108379 2.125 6.9375 C1.59132813 8.03964844 1.05765625 9.14179687 0.5078125 10.27734375 C-1 13 -1 13 -3 14 C-3 12.68 -3 11.36 -3 10 C-2.34 10 -1.68 10 -1 10 C-1 8.68 -1 7.36 -1 6 C-0.34 6 0.32 6 1 6 C0.67 4.02 0.34 2.04 0 0 Z " fill="#CDEE3D" transform="translate(490,507)"/>
<path d="M0 0 C2.92824652 2.92824652 4.27239967 5.2979993 6 9 C3.50935112 9.68707555 1.62113708 10 -1 10 C-0.67 6.7 -0.34 3.4 0 0 Z " fill="#CCEF35" transform="translate(786,868)"/>
<path d="M0 0 C0.66 0 1.32 0 2 0 C0.51481201 4.04301175 -1.42877998 7.61146256 -3.625 11.3125 C-4.25664062 12.38113281 -4.88828125 13.44976563 -5.5390625 14.55078125 C-6.26222656 15.76314453 -6.26222656 15.76314453 -7 17 C-7.33 16.34 -7.66 15.68 -8 15 C-7.0625 12.375 -7.0625 12.375 -6 10 C-5.34 10 -4.68 10 -4 10 C-4 8.68 -4 7.36 -4 6 C-3.34 6 -2.68 6 -2 6 C-2 5.01 -2 4.02 -2 3 C-1.34 3 -0.68 3 0 3 C0 2.01 0 1.02 0 0 Z " fill="#CAE844" transform="translate(459,566)"/>
<path d="M0 0 C0.66 0 1.32 0 2 0 C1.31238981 3.65564909 -0.25449545 6.51867272 -2.0625 9.75 C-2.61035156 10.73484375 -3.15820312 11.7196875 -3.72265625 12.734375 C-4.14417969 13.48203125 -4.56570313 14.2296875 -5 15 C-5.66 13.68 -6.32 12.36 -7 11 C-6.57847656 10.45730469 -6.15695312 9.91460937 -5.72265625 9.35546875 C-5.17480469 8.64003906 -4.62695312 7.92460937 -4.0625 7.1875 C-3.51722656 6.47980469 -2.97195313 5.77210938 -2.41015625 5.04296875 C-0.83143752 2.95874948 -0.83143752 2.95874948 0 0 Z " fill="#111A01" transform="translate(787,403)"/>
<path d="M0 0 C0.66 0 1.32 0 2 0 C0.56032356 5.23518706 -1.81696611 9.63026009 -5 14 C-5.33 14 -5.66 14 -6 14 C-6 12.35 -6 10.7 -6 9 C-5.34 9 -4.68 9 -4 9 C-4 8.01 -4 7.02 -4 6 C-3.34 6 -2.68 6 -2 6 C-2 4.68 -2 3.36 -2 2 C-1.34 2 -0.68 2 0 2 C0 1.34 0 0.68 0 0 Z " fill="#C9E93F" transform="translate(935,269)"/>
<path d="M0 0 C1.65218825 3.30437649 0.9493127 5.49940944 0 9 C-2.12432724 11.04791259 -4.4387975 12.54887482 -7 14 C-5.53967505 8.68972746 -3.01679014 4.53669968 0 0 Z " fill="#C6E63F" transform="translate(636,673)"/>
<path d="M0 0 C0.99 0.33 1.98 0.66 3 1 C1.66511872 4.59391114 0.03977277 7.75490696 -2 11 C-2.66 10.67 -3.32 10.34 -4 10 C-3.52449439 8.51965236 -3.04448784 7.04074979 -2.5625 5.5625 C-2.29566406 4.73878906 -2.02882813 3.91507813 -1.75390625 3.06640625 C-1 1 -1 1 0 0 Z " fill="#CEEF3D" transform="translate(446,586)"/>
<path d="M0 0 C1.98 0.99 1.98 0.99 4 2 C4 2.99 4 3.98 4 5 C4.66 5 5.32 5 6 5 C6.28875 5.61875 6.5775 6.2375 6.875 6.875 C7.93720042 9.13325765 7.93720042 9.13325765 10 11 C9.67 11.66 9.34 12.32 9 13 C8.34 13 7.68 13 7 13 C5.71372091 11.07058137 4.51888653 9.07960033 3.375 7.0625 C2.74335937 5.96035156 2.11171875 4.85820313 1.4609375 3.72265625 C0 1 0 1 0 0 Z " fill="#C7E63D" transform="translate(845,802)"/>
<path d="M0 0 C1 2 1 2 0.546875 4.05859375 C0.28390625 4.84363281 0.0209375 5.62867188 -0.25 6.4375 C-0.62898437 7.61119141 -0.62898437 7.61119141 -1.015625 8.80859375 C-2.05459263 11.1215336 -3.0289534 12.42011471 -5 14 C-5.66 14 -6.32 14 -7 14 C-5.23570801 9.02790438 -2.6060834 4.56561939 0 0 Z " fill="#CBEB3E" transform="translate(254,793)"/>
<path d="M0 0 C3.22269618 3.79817765 5.74520378 7.57391854 8 12 C7.67 12.66 7.34 13.32 7 14 C5.0625 13.5 5.0625 13.5 3 12 C2.31209578 9.30341548 2.18053536 6.7982981 2 4 C1.34 4 0.68 4 0 4 C0 2.68 0 1.36 0 0 Z " fill="#CAE940" transform="translate(873,722)"/>
<path d="M0 0 C2.9552728 2.61778794 4.75832727 5.67583335 6.75 9.0625 C7.38421875 10.12597656 8.0184375 11.18945312 8.671875 12.28515625 C9.11015625 13.18105469 9.5484375 14.07695313 10 15 C9.67 15.66 9.34 16.32 9 17 C5.83896287 14.89264191 5.57975982 14.54889514 4.5 11.1875 C3.34824127 7.82972721 1.86972877 5.02717991 0 2 C0 1.34 0 0.68 0 0 Z " fill="#C8E641" transform="translate(693,710)"/>
<path d="M0 0 C-1.68673918 4.49797113 -3.81673892 8.72886302 -6 13 C-6.99 12.67 -7.98 12.34 -9 12 C-9 11.34 -9 10.68 -9 10 C-8.01 10 -7.02 10 -6 10 C-6 8.68 -6 7.36 -6 6 C-5.34 6 -4.68 6 -4 6 C-4 4.35 -4 2.7 -4 1 C-2 0 -2 0 0 0 Z " fill="#CCEC3D" transform="translate(487,521)"/>
<path d="M0 0 C0.66 0.33 1.32 0.66 2 1 C-0.31 4.96 -2.62 8.92 -5 13 C-6 9 -6 9 -6 5 C-4.68 4.67 -3.36 4.34 -2 4 C-2 3.34 -2 2.68 -2 2 C-1.34 2 -0.68 2 0 2 C0 1.34 0 0.68 0 0 Z " fill="#C8E83F" transform="translate(535,436)"/>
<path d="M0 0 C0.99 0 1.98 0 3 0 C2.52389341 4.99911924 0.96837781 7.97832683 -2 12 C-3.09658936 8.71023192 -2.79953138 7.28696233 -2 4 C-1.01 4 -0.02 4 1 4 C0.67 2.68 0.34 1.36 0 0 Z " fill="#CFF03C" transform="translate(582,350)"/>
<path d="M0 0 C1.423125 0.495 1.423125 0.495 2.875 1 C5.77062452 2.10159191 5.77062452 2.10159191 8 2 C7.34 4.64 6.68 7.28 6 10 C3.47650757 6.87567603 1.72743854 3.61939504 0 0 Z " fill="#CDEF36" transform="translate(797,721)"/>
<path d="M0 0 C1.85776765 3.13498292 2.20140476 5.37471432 2 9 C2.66 9 3.32 9 4 9 C4.33 12.96 4.66 16.92 5 21 C2.95684198 17.93526297 2.25739685 15.73045705 1.375 12.1875 C1.11460937 11.17042969 0.85421875 10.15335938 0.5859375 9.10546875 C-0.001462 5.99225142 -0.10390886 3.15977385 0 0 Z " fill="#CBEA49" transform="translate(729,584)"/>
<path d="M0 0 C1.60031344 3.20062687 0.03173691 5.72271806 -1 9 C-1.66 9 -2.32 9 -3 9 C-4.32 11.31 -5.64 13.62 -7 16 C-7.66 15.67 -8.32 15.34 -9 15 C-6.03 10.05 -3.06 5.1 0 0 Z " fill="#C9E942" transform="translate(436,479)"/>
<path d="M0 0 C0.66 1.32 1.32 2.64 2 4 C0.02 6.31 -1.96 8.62 -4 11 C-4.66 10.67 -5.32 10.34 -6 10 C-4.02 6.7 -2.04 3.4 0 0 Z " fill="#CCEC3D" transform="translate(220,852)"/>
<path d="M0 0 C1.32 0 2.64 0 4 0 C4.70226141 1.24176695 5.38629109 2.49385599 6.0625 3.75 C6.44535156 4.44609375 6.82820312 5.1421875 7.22265625 5.859375 C8 8 8 8 7 12 C3.535 6.06 3.535 6.06 0 0 Z " fill="#111901" transform="translate(771,842)"/>
<path d="M0 0 C0.66 0 1.32 0 2 0 C0.43358249 4.30764815 -1.68336156 8.06171464 -4 12 C-4.6875 10.3125 -4.6875 10.3125 -5 8 C-3.6875 5.4375 -3.6875 5.4375 -2 3 C-1.34 2.01 -0.68 1.02 0 0 Z " fill="#111A01" transform="translate(224,841)"/>
<path d="M0 0 C0.66 0 1.32 0 2 0 C0.74194623 4.50802601 -0.90407165 7.4912812 -4 11 C-4.66 10.01 -5.32 9.02 -6 8 C-5.04956626 6.66102417 -4.08940853 5.32894573 -3.125 4 C-2.59132812 3.2575 -2.05765625 2.515 -1.5078125 1.75 C-1.01023438 1.1725 -0.51265625 0.595 0 0 Z " fill="#060C00" transform="translate(237,818)"/>
<path d="M0 0 C0.66 0.33 1.32 0.66 2 1 C-0.31 4.96 -2.62 8.92 -5 13 C-5.33 11.68 -5.66 10.36 -6 9 C-6.33 8.01 -6.66 7.02 -7 6 C-5.68 6.33 -4.36 6.66 -3 7 C-2.814375 5.5459375 -2.814375 5.5459375 -2.625 4.0625 C-2.41875 3.051875 -2.2125 2.04125 -2 1 C-1.34 0.67 -0.68 0.34 0 0 Z " fill="#C8E740" transform="translate(345,764)"/>
<path d="M0 0 C0.66 0 1.32 0 2 0 C2.33 1.32 2.66 2.64 3 4 C2.34 4 1.68 4 1 4 C0.731875 4.639375 0.46375 5.27875 0.1875 5.9375 C-1 8 -1 8 -4 9 C-2.94124926 5.59687262 -1.99097846 2.98646769 0 0 Z " fill="#C9E741" transform="translate(653,643)"/>
<path d="M0 0 C1 4 1 4 -0.109375 6.578125 C-0.65078125 7.45984375 -1.1921875 8.3415625 -1.75 9.25 C-2.28109375 10.14203125 -2.8121875 11.0340625 -3.359375 11.953125 C-3.90078125 12.62859375 -4.4421875 13.3040625 -5 14 C-5.99 14 -6.98 14 -8 14 C-5.36 9.38 -2.72 4.76 0 0 Z " fill="#141D02" transform="translate(524,457)"/>
<path d="M0 0 C1.9375 0.8125 1.9375 0.8125 4 2 C4.33 2.99 4.66 3.98 5 5 C5.66 5.66 6.32 6.32 7 7 C6.625 9.125 6.625 9.125 6 11 C2.90407165 7.4912812 1.25805377 4.50802601 0 0 Z " fill="#101702" transform="translate(935,826)"/>
<path d="M0 0 C4.42857143 5.14285714 4.42857143 5.14285714 5 9 C3.35 8.67 1.7 8.34 0 8 C-0.98120464 4.94736336 -0.98120464 3.05263664 0 0 Z " fill="#D0F337" transform="translate(883,739)"/>
<path d="M0 0 C1 3 1 3 0.00390625 5.26171875 C-0.47175781 6.06222656 -0.94742187 6.86273437 -1.4375 7.6875 C-2.14712891 8.89986328 -2.14712891 8.89986328 -2.87109375 10.13671875 C-3.24363281 10.75160156 -3.61617188 11.36648438 -4 12 C-4.99 12 -5.98 12 -7 12 C-4.69 8.04 -2.38 4.08 0 0 Z " fill="#121B01" transform="translate(382,703)"/>
<path d="M0 0 C1 2 1 2 0.44140625 4.1640625 C0.15136719 4.97617187 -0.13867188 5.78828125 -0.4375 6.625 C-0.72496094 7.44226563 -1.01242187 8.25953125 -1.30859375 9.1015625 C-1.65083984 10.04128906 -1.65083984 10.04128906 -2 11 C-2.99 11 -3.98 11 -5 11 C-5 11.66 -5 12.32 -5 13 C-5.66 12.67 -6.32 12.34 -7 12 C-4.69 8.04 -2.38 4.08 0 0 Z " fill="#C7E740" transform="translate(320,679)"/>
<path d="M0 0 C1.98 0.99 1.98 0.99 4 2 C4 2.99 4 3.98 4 5 C4.99 4.67 5.98 4.34 7 4 C7.33 4.66 7.66 5.32 8 6 C7.34 6 6.68 6 6 6 C6.33 7.65 6.66 9.3 7 11 C4.04250209 7.53258866 1.92151848 4.13126473 0 0 Z " fill="#CBEC3E" transform="translate(807,738)"/>
<path d="M0 0 C0.66 0 1.32 0 2 0 C0.74194623 4.50802601 -0.90407165 7.4912812 -4 11 C-4.35858439 7.14521782 -4.2754818 5.42240542 -2.125 2.125 C-1.42375 1.42375 -0.7225 0.7225 0 0 Z " fill="#CDED40" transform="translate(941,258)"/>
<path d="M0 0 C0.33 0.99 0.66 1.98 1 3 C0.33333333 4.33333333 -0.33333333 5.66666667 -1 7 C-1.16750414 9.66709069 -1.16750414 9.66709069 -1 12 C-2.65 12.33 -4.3 12.66 -6 13 C-4.31326082 8.50202887 -2.18326108 4.27113698 0 0 Z " fill="#C6E440" transform="translate(213,863)"/>
<path d="M0 0 C2.95749791 3.46741134 5.07848152 6.86873527 7 11 C5.68 10.67 4.36 10.34 3 10 C2.67 8.35 2.34 6.7 2 5 C1.34 5 0.68 5 0 5 C0 3.35 0 1.7 0 0 Z " fill="#C8E841" transform="translate(705,730)"/>
<path d="M0 0 C0.68359375 1.734375 0.68359375 1.734375 1 4 C-0.21484375 6.140625 -0.21484375 6.140625 -1.9375 8.25 C-2.50339844 8.95640625 -3.06929688 9.6628125 -3.65234375 10.390625 C-4.31943359 11.18726563 -4.31943359 11.18726563 -5 12 C-5.33 11.34 -5.66 10.68 -6 10 C-4.78515625 7.6171875 -4.78515625 7.6171875 -3.0625 4.875 C-2.21365234 3.50988281 -2.21365234 3.50988281 -1.34765625 2.1171875 C-0.90292969 1.41851563 -0.45820313 0.71984375 0 0 Z " fill="#101901" transform="translate(364,734)"/>
<path d="M0 0 C1.43348316 2.86696632 0.55925559 4.89302451 0 8 C0 9.32 0 10.64 0 12 C-1.32 11.67 -2.64 11.34 -4 11 C-2.25 3.375 -2.25 3.375 0 0 Z " fill="#CFF236" transform="translate(396,548)"/>
<path d="M0 0 C0.66 0.66 1.32 1.32 2 2 C1.34 2.66 0.68 3.32 0 4 C-0.433125 5.2065625 -0.433125 5.2065625 -0.875 6.4375 C-2.14106224 9.32130844 -3.37684406 10.3386679 -6 12 C-4.43358249 7.69235185 -2.31663844 3.93828536 0 0 Z " fill="#151E01" transform="translate(474,544)"/>
<path d="M0 0 C0.99 0.66 1.98 1.32 3 2 C1.35 4.64 -0.3 7.28 -2 10 C-2.66 8.68 -3.32 7.36 -4 6 C-3.01 5.67 -2.02 5.34 -1 5 C-0.67 3.35 -0.34 1.7 0 0 Z " fill="#CBEB3B" transform="translate(516,466)"/>
<path d="M0 0 C0.97918775 3.07556958 1.1498998 3.68592423 -0.3125 6.75 C-0.869375 7.4925 -1.42625 8.235 -2 9 C-2.66 9 -3.32 9 -4 9 C-4.33 9.99 -4.66 10.98 -5 12 C-5.33 11.34 -5.66 10.68 -6 10 C-4.78515625 7.6171875 -4.78515625 7.6171875 -3.0625 4.875 C-2.21365234 3.50988281 -2.21365234 3.50988281 -1.34765625 2.1171875 C-0.90292969 1.41851562 -0.45820312 0.71984375 0 0 Z " fill="#172102" transform="translate(562,392)"/>
<path d="M0 0 C2.96865509 2.54456151 4.3619751 5.48994665 6 9 C5.34 9 4.68 9 4 9 C3.67 8.34 3.34 7.68 3 7 C1.68 7.33 0.36 7.66 -1 8 C-1.08226668 4.95613276 -0.97608217 2.92824652 0 0 Z " fill="#CCED3C" transform="translate(930,820)"/>
<path d="M0 0 C0.66 0.33 1.32 0.66 2 1 C1.49477778 5.37859255 -1.17827222 7.81651224 -4 11 C-4 7.80389448 -3.45328458 6.58282374 -2 3.8125 C-1.62875 3.09707031 -1.2575 2.38164063 -0.875 1.64453125 C-0.441875 0.83048828 -0.441875 0.83048828 0 0 Z " fill="#0F1702" transform="translate(356,747)"/>
<path d="M0 0 C0.33 0.66 0.66 1.32 1 2 C0.00390625 4.1640625 0.00390625 4.1640625 -1.4375 6.625 C-1.91058594 7.44226563 -2.38367188 8.25953125 -2.87109375 9.1015625 C-3.24363281 9.72804688 -3.61617188 10.35453125 -4 11 C-5.32940404 7.01178789 -4.43803613 4.88269755 -3 1 C-2.01 0.67 -1.02 0.34 0 0 Z " fill="#CDEC40" transform="translate(366,728)"/>
<path d="M0 0 C1.32 0.33 2.64 0.66 4 1 C1.525 5.455 1.525 5.455 -1 10 C-1.33 8.68 -1.66 7.36 -2 6 C-1.34 6 -0.68 6 0 6 C-0.2784375 4.7934375 -0.2784375 4.7934375 -0.5625 3.5625 C-0.706875 2.716875 -0.85125 1.87125 -1 1 C-0.67 0.67 -0.34 0.34 0 0 Z " fill="#CDEC3F" transform="translate(539,425)"/>
<path d="M0 0 C1 2 1 2 0.0625 5.125 C-0.288125 6.07375 -0.63875 7.0225 -1 8 C0.32 8.33 1.64 8.66 3 9 C0.36 9 -2.28 9 -5 9 C-3.35 6.03 -1.7 3.06 0 0 Z " fill="#C8E543" transform="translate(188,907)"/>
<path d="M0 0 C2.475 0.495 2.475 0.495 5 1 C5.33 3.31 5.66 5.62 6 8 C5.34 8 4.68 8 4 8 C2.68 5.36 1.36 2.72 0 0 Z " fill="#D0F23C" transform="translate(887,872)"/>
<path d="M0 0 C2.61724095 2.36797991 4.32861729 4.89600354 6 8 C6 8.66 6 9.32 6 10 C3.525 9.01 3.525 9.01 1 8 C0.67 5.36 0.34 2.72 0 0 Z " fill="#CEEF3D" transform="translate(937,832)"/>
<path d="M0 0 C0.66 1.32 1.32 2.64 2 4 C0.33333333 5.66666667 -1.33333333 7.33333333 -3 9 C-3.66 8.67 -4.32 8.34 -5 8 C-3.35 5.36 -1.7 2.72 0 0 Z " fill="#C9E93D" transform="translate(242,814)"/>
<path d="M0 0 C0.33 0 0.66 0 1 0 C0.67 2.31 0.34 4.62 0 7 C-1.65 7.66 -3.3 8.32 -5 9 C-3.35 6.03 -1.7 3.06 0 0 Z " fill="#CDED3E" transform="translate(788,406)"/>
<path d="M0 0 C-6.28571429 4.42857143 -6.28571429 4.42857143 -10 5 C-10.33 4.01 -10.66 3.02 -11 2 C-9.54494642 1.47007308 -8.08581873 0.9513211 -6.625 0.4375 C-5.81289063 0.14746094 -5.00078125 -0.14257812 -4.1640625 -0.44140625 C-2 -1 -2 -1 0 0 Z " fill="#C4E33D" transform="translate(652,848)"/>
<path d="M0 0 C4.95 1.98 4.95 1.98 10 4 C9.34 4.66 8.68 5.32 8 6 C6.68 6 5.36 6 4 6 C3.34 4.68 2.68 3.36 2 2 C1.34 2 0.68 2 0 2 C0 1.34 0 0.68 0 0 Z " fill="#C6E640" transform="translate(342,845)"/>
<path d="M0 0 C3.20982372 3.01612746 5.00453275 6.08033219 7 10 C6.67 10.66 6.34 11.32 6 12 C2.50071836 9.66714557 2.3670902 8.79204931 1.3125 4.875 C1.06113281 3.96492187 0.80976562 3.05484375 0.55078125 2.1171875 C0.27814453 1.06917969 0.27814453 1.06917969 0 0 Z " fill="#CCEA46" transform="translate(730,773)"/>
<path d="M0 0 C0.66 0 1.32 0 2 0 C2 0.66 2 1.32 2 2 C2.66 2 3.32 2 4 2 C6.125 6.625 6.125 6.625 5 10 C4.16121545 8.71186658 3.32913217 7.41936744 2.5 6.125 C2.0359375 5.40570312 1.571875 4.68640625 1.09375 3.9453125 C0 2 0 2 0 0 Z " fill="#C9E740" transform="translate(655,772)"/>
<path d="M0 0 C2.475 0.495 2.475 0.495 5 1 C4.979375 1.7425 4.95875 2.485 4.9375 3.25 C4.99328688 5.70462279 5.3069904 7.66109261 6 10 C3.25722422 6.80009492 1.3697164 3.99500618 0 0 Z " fill="#CEEF40" transform="translate(771,676)"/>
<path d="M0 0 C0.66 0 1.32 0 2 0 C0.66511872 3.59391114 -0.96022723 6.75490696 -3 10 C-3.33 8.68 -3.66 7.36 -4 6 C-3.34 6 -2.68 6 -2 6 C-2 4.68 -2 3.36 -2 2 C-1.34 2 -0.68 2 0 2 C0 1.34 0 0.68 0 0 Z " fill="#CCEC43" transform="translate(397,673)"/>
<path d="M0 0 C0.66 0 1.32 0 2 0 C0.66511872 3.59391114 -0.96022723 6.75490696 -3 10 C-4 8 -4 8 -3.0625 4.875 C-2.5365625 3.451875 -2.5365625 3.451875 -2 2 C-1.34 2 -0.68 2 0 2 C0 1.34 0 0.68 0 0 Z " fill="#C9E841" transform="translate(411,649)"/>
<path d="M0 0 C0.66 0 1.32 0 2 0 C2.99 3.3 3.98 6.6 5 10 C4.01 10.495 4.01 10.495 3 11 C2.49384702 9.73160474 1.99530901 8.46016898 1.5 7.1875 C1.2215625 6.47980469 0.943125 5.77210938 0.65625 5.04296875 C0 3 0 3 0 0 Z " fill="#C7E73C" transform="translate(805,598)"/>
<path d="M0 0 C1 2 1 2 0.3125 5.0625 C-0.120625 6.031875 -0.55375 7.00125 -1 8 C-2.32 8.33 -3.64 8.66 -5 9 C-3.35 6.03 -1.7 3.06 0 0 Z " fill="#C4E33E" transform="translate(411,522)"/>
<path d="M0 0 C0.66 0.33 1.32 0.66 2 1 C0.68 3.31 -0.64 5.62 -2 8 C-2.66 6.68 -3.32 5.36 -4 4 C-2.68 2.68 -1.36 1.36 0 0 Z " fill="#0C1301" transform="translate(757,457)"/>
<path d="M0 0 C0.66 0 1.32 0 2 0 C1.39305845 3.15330554 0.3583335 5.18888867 -1.5625 7.75 C-2.24505859 8.67039062 -2.24505859 8.67039062 -2.94140625 9.609375 C-3.29074219 10.06828125 -3.64007812 10.5271875 -4 11 C-4.33 10.34 -4.66 9.68 -5 9 C-4.00390625 6.8359375 -4.00390625 6.8359375 -2.5625 4.375 C-2.08941406 3.55773437 -1.61632812 2.74046875 -1.12890625 1.8984375 C-0.75636719 1.27195312 -0.38382813 0.64546875 0 0 Z " fill="#111901" transform="translate(849,430)"/>
<path d="M0 0 C0.33 0.66 0.66 1.32 1 2 C0.33333333 3.33333333 -0.33333333 4.66666667 -1 6 C-1 7.32 -1 8.64 -1 10 C-2.65 10.33 -4.3 10.66 -6 11 C-4.02 7.37 -2.04 3.74 0 0 Z " fill="#C6E63E" transform="translate(473,415)"/>
<path d="M0 0 C0.66 0 1.32 0 2 0 C2 0.66 2 1.32 2 2 C2.99 2.33 3.98 2.66 5 3 C4.34 4.32 3.68 5.64 3 7 C2.34 7 1.68 7 1 7 C0.67 4.69 0.34 2.38 0 0 Z " fill="#CEF137" transform="translate(898,330)"/>
<path d="M0 0 C0.66 0.66 1.32 1.32 2 2 C0.35 4.97 -1.3 7.94 -3 11 C-3.33 11 -3.66 11 -4 11 C-4 9.35 -4 7.7 -4 6 C-3.34 6 -2.68 6 -2 6 C-2 4.68 -2 3.36 -2 2 C-1.34 2 -0.68 2 0 2 C0 1.34 0 0.68 0 0 Z " fill="#CCEC42" transform="translate(923,291)"/>
<path d="M0 0 C1 2 1 2 0.58203125 3.91015625 C0.32808594 4.62042969 0.07414063 5.33070313 -0.1875 6.0625 C-0.54908203 7.13177734 -0.54908203 7.13177734 -0.91796875 8.22265625 C-2 10 -2 10 -6 11 C-4.02 7.37 -2.04 3.74 0 0 Z " fill="#C6E445" transform="translate(195,895)"/>
<path d="M0 0 C1.28163292 3.84489875 0.69835501 5.37169613 -1 9 C-2.65 9.66 -4.3 10.32 -6 11 C-4.02 7.37 -2.04 3.74 0 0 Z " fill="#C7E641" transform="translate(668,828)"/>
<path d="M0 0 C0.33 0.66 0.66 1.32 1 2 C0.328125 3.875 0.328125 3.875 -0.75 6 C-1.26820313 7.051875 -1.26820313 7.051875 -1.796875 8.125 C-3 10 -3 10 -6 12 C-4.43358249 7.69235185 -2.31663844 3.93828536 0 0 Z " fill="#C7E543" transform="translate(279,750)"/>
<path d="M0 0 C0.66 0.33 1.32 0.66 2 1 C1.67 3.31 1.34 5.62 1 8 C-0.89213369 5.61426621 -2.02391783 3.92824652 -3 1 C-2.01 0.67 -1.02 0.34 0 0 Z " fill="#D1F436" transform="translate(746,627)"/>
<path d="M0 0 C3.33773709 3.64116773 3.97864902 7.28607242 5 12 C2.65398514 9.86725921 1.13735551 7.97462211 0 5 C-0.125 2.25 -0.125 2.25 0 0 Z " fill="#C8E83E" transform="translate(323,816)"/>
<path d="M0 0 C0.33 0 0.66 0 1 0 C1.25 2.25 1.25 2.25 1 5 C-1 7.3125 -1 7.3125 -3 9 C-3.66 8.67 -4.32 8.34 -5 8 C-4.19185349 6.66402348 -3.37836819 5.331275 -2.5625 4 C-2.11003906 3.2575 -1.65757812 2.515 -1.19140625 1.75 C-0.79824219 1.1725 -0.40507812 0.595 0 0 Z " fill="#CBEA40" transform="translate(260,783)"/>
<path d="M0 0 C1.31625194 2.63250388 0.74813658 3.80179056 0.0625 6.625 C-0.13214844 7.44226563 -0.32679688 8.25953125 -0.52734375 9.1015625 C-0.68332031 9.72804688 -0.83929687 10.35453125 -1 11 C-3.03125 7.328125 -3.03125 7.328125 -2.75 4.375 C-2 2 -2 2 0 0 Z " fill="#172201" transform="translate(730,518)"/>
<path d="M0 0 C0.66 0.33 1.32 0.66 2 1 C0.68 4.3 -0.64 7.6 -2 11 C-2.33 11 -2.66 11 -3 11 C-3.32613618 6.32538149 -2.70582788 3.83325617 0 0 Z " fill="#121B01" transform="translate(738,492)"/>
<path d="M0 0 C0.99 0 1.98 0 3 0 C1.8141763 3.37503669 0.72426311 5.64722731 -2 8 C-2 6.35 -2 4.7 -2 3 C-1.34 3 -0.68 3 0 3 C0 2.01 0 1.02 0 0 Z " fill="#CEEF3D" transform="translate(501,492)"/>
<path d="M0 0 C1 3 1 3 -0.25 6.0625 C-2 9 -2 9 -5 11 C-3.77472971 6.94718288 -2.30119506 3.55639236 0 0 Z " fill="#0D1600" transform="translate(934,275)"/>
<path d="M0 0 C3 1 3 1 5 4 C5.125 6.6875 5.125 6.6875 5 9 C2.67527795 6.14693203 1.2491742 3.45925163 0 0 Z " fill="#151D01" transform="translate(730,771)"/>
<path d="M0 0 C0.99 0.33 1.98 0.66 3 1 C1.68 3.31 0.36 5.62 -1 8 C-1.66 6.68 -2.32 5.36 -3 4 C-2.01 3.67 -1.02 3.34 0 3 C0 2.01 0 1.02 0 0 Z " fill="#CAEA3E" transform="translate(349,755)"/>
<path d="M0 0 C0.66 0.33 1.32 0.66 2 1 C-0.475 5.455 -0.475 5.455 -3 10 C-4 6 -4 6 -2.0625 2.75 C-1.381875 1.8425 -0.70125 0.935 0 0 Z " fill="#161F02" transform="translate(279,747)"/>
<path d="M0 0 C1.32 0 2.64 0 4 0 C4.79953138 3.28696233 5.09658936 4.71023192 4 8 C2.68 5.36 1.36 2.72 0 0 Z " fill="#CAEA41" transform="translate(631,732)"/>
<path d="M0 0 C1.04187157 3.12561472 1.23843794 4.04680182 0 7 C-2.0625 8.25 -2.0625 8.25 -4 9 C-2.80100302 5.9168649 -1.52299523 2.93720508 0 0 Z " fill="#CFEE42" transform="translate(641,664)"/>
<path d="M0 0 C0.66 0.33 1.32 0.66 2 1 C-0.475 5.455 -0.475 5.455 -3 10 C-4 6 -4 6 -2.0625 2.75 C-1.381875 1.8425 -0.70125 0.935 0 0 Z " fill="#0E1800" transform="translate(361,605)"/>
<path d="M0 0 C0.33 0.66 0.66 1.32 1 2 C-0.25 5.5625 -0.25 5.5625 -2 9 C-2.99 9.33 -3.98 9.66 -5 10 C-3.66511872 6.40608886 -2.03977277 3.24509304 0 0 Z " fill="#CCEC45" transform="translate(370,593)"/>
<path d="M0 0 C0.66 0.33 1.32 0.66 2 1 C1.01 2.485 1.01 2.485 0 4 C-0.66 4 -1.32 4 -2 4 C-2 4.66 -2 5.32 -2 6 C-2.99 6.33 -3.98 6.66 -5 7 C-3.75023244 3.34683329 -3.32901247 2.21934164 0 0 Z " fill="#D1F43C" transform="translate(420,510)"/>
<path d="M0 0 C0.66 0.33 1.32 0.66 2 1 C1.67 2.65 1.34 4.3 1 6 C0.01 6 -0.98 6 -2 6 C-2 6.66 -2 7.32 -2 8 C-2.66 7.67 -3.32 7.34 -4 7 C-2.68 4.69 -1.36 2.38 0 0 Z " fill="#C9EA3D" transform="translate(782,416)"/>
<path d="M0 0 C1 2 1 2 0.3125 4.4375 C-1.10829685 7.21143671 -2.39746148 8.35172561 -5 10 C-3.66511872 6.40608886 -2.03977277 3.24509304 0 0 Z " fill="#172103" transform="translate(569,380)"/>
<path d="M0 0 C0.33 0 0.66 0 1 0 C1.36923077 4.55384615 1.36923077 4.55384615 -0.5 6.8125 C-0.995 7.204375 -1.49 7.59625 -2 8 C-2.66 7.67 -3.32 7.34 -4 7 C-2.68 4.69 -1.36 2.38 0 0 Z " fill="#151E02" transform="translate(888,359)"/>
<path d="M0 0 C0.66 0.33 1.32 0.66 2 1 C2 1.66 2 2.32 2 3 C2.99 3 3.98 3 5 3 C5 3.66 5 4.32 5 5 C2.69 5 0.38 5 -2 5 C-1.34 3.35 -0.68 1.7 0 0 Z " fill="#CFF42F" transform="translate(888,347)"/>
<path d="M0 0 C0.66 0.99 1.32 1.98 2 3 C1.67 3.99 1.34 4.98 1 6 C-1.0625 6.6875 -1.0625 6.6875 -3 7 C-1.125 1.125 -1.125 1.125 0 0 Z " fill="#CEEF3A" transform="translate(826,339)"/>
<path d="M0 0 C0.66 0.66 1.32 1.32 2 2 C-0.625 7.75 -0.625 7.75 -4 10 C-2.8905928 6.51329166 -1.73662334 3.22515763 0 0 Z " fill="#141E01" transform="translate(939,265)"/>
<path d="M0 0 C0.66 0.66 1.32 1.32 2 2 C1.34 3.65 0.68 5.3 0 7 C-1.5 5.625 -1.5 5.625 -3 4 C-3 3.34 -3 2.68 -3 2 C-2.01 1.34 -1.02 0.68 0 0 Z " fill="#0D1202" transform="translate(971,881)"/>
<path d="M0 0 C1.32 0 2.64 0 4 0 C4.66 2.31 5.32 4.62 6 7 C5.01 7.495 5.01 7.495 4 8 C2.68 5.36 1.36 2.72 0 0 Z " fill="#C4E43E" transform="translate(821,762)"/>
<path d="M0 0 C0.66 0.33 1.32 0.66 2 1 C1.01 3.31 0.02 5.62 -1 8 C-1.99 7.67 -2.98 7.34 -4 7 C-2.68 4.69 -1.36 2.38 0 0 Z " fill="#CBEA41" transform="translate(339,646)"/>
<path d="M0 0 C2.18975773 3.28463659 2.99806563 6.20696275 4 10 C3.34 10 2.68 10 2 10 C-0.4294516 6.3558226 -0.16179575 4.28758728 0 0 Z " fill="#1F2905" transform="translate(733,605)"/>
<path d="M0 0 C-1.75 5.75 -1.75 5.75 -4 8 C-4 5.69 -4 3.38 -4 1 C-2 0 -2 0 0 0 Z " fill="#C5E53A" transform="translate(821,480)"/>
<path d="M0 0 C0.33 0.66 0.66 1.32 1 2 C-0.65 3.98 -2.3 5.96 -4 8 C-4.33 7.34 -4.66 6.68 -5 6 C-2.59016393 1.29508197 -2.59016393 1.29508197 0 0 Z " fill="#0B1300" transform="translate(538,436)"/>
<path d="M0 0 C0.33 0 0.66 0 1 0 C1.25532751 3.06393013 1.21861333 4.63233212 -0.375 7.3125 C-1.179375 8.1478125 -1.179375 8.1478125 -2 9 C-2.66 9 -3.32 9 -4 9 C-2.80100302 5.9168649 -1.52299523 2.93720508 0 0 Z " fill="#121B02" transform="translate(856,417)"/>
<path d="M0 0 C0.99 0.33 1.98 0.66 3 1 C1.68 3.31 0.36 5.62 -1 8 C-1.33 8 -1.66 8 -2 8 C-1.125 1.125 -1.125 1.125 0 0 Z " fill="#172104" transform="translate(807,368)"/>
<path d="M0 0 C0.33 0.66 0.66 1.32 1 2 C0.06421005 4.35981813 -0.93347808 6.69631264 -2 9 C-2.99 8.67 -3.98 8.34 -5 8 C-3.35 5.36 -1.7 2.72 0 0 Z " fill="#C6E442" transform="translate(506,358)"/>
<path d="M0 0 C0.8125 1.6875 0.8125 1.6875 1 4 C-1.4375 6.75 -1.4375 6.75 -4 9 C-2.94124926 5.59687262 -1.99097846 2.98646769 0 0 Z " fill="#121C01" transform="translate(900,337)"/>
<path d="M0 0 C0.33 0.66 0.66 1.32 1 2 C0.06421005 4.35981813 -0.93347808 6.69631264 -2 9 C-2.66 9 -3.32 9 -4 9 C-2.94124926 5.59687262 -1.99097846 2.98646769 0 0 Z " fill="#C9E843" transform="translate(831,330)"/>
</svg>
